<svg width="1423" height="299" viewBox="0 0 1423 299" fill="none" xmlns="http://www.w3.org/2000/svg">
<path d="M269.198 0V0.0502714C265.997 15.4507 262.813 30.8679 259.612 46.2683H162.551V237.726H108.255V46.2683H9.58547C6.38473 30.8512 3.18398 15.4339 0 0H269.198Z" fill="black"/>
<path d="M416.804 67.4676C434.249 75.6119 447.907 86.9067 457.76 101.352C467.614 115.814 472.541 132.035 472.541 150.017C472.541 167.797 467.614 183.901 457.76 198.363C447.907 212.825 434.249 224.12 416.804 232.247C399.343 240.391 379.803 244.447 358.185 244.447C337.406 244.447 317.916 240.324 299.717 232.08C281.518 223.835 266.956 212.49 256.03 198.028C245.104 183.566 239.641 167.562 239.641 150C239.641 132.22 245.104 116.116 256.03 101.654C266.956 87.1915 281.451 75.8465 299.55 67.6016C317.648 59.3568 337.188 55.2344 358.169 55.2344C379.803 55.2511 399.343 59.3233 416.804 67.4676ZM403.147 194.995C415.346 185.141 421.463 170.16 421.463 150.017C421.463 129.89 415.363 114.842 403.147 104.888C390.947 94.9336 376.049 89.9566 358.487 89.9566C347.343 89.9566 336.685 92.1016 326.53 96.3748C316.358 100.665 307.996 107.301 301.477 116.3C294.941 125.299 291.674 136.543 291.674 150.033C291.674 163.523 294.941 174.768 301.477 183.767C308.012 192.766 316.358 199.352 326.53 203.524C336.702 207.697 347.36 209.792 358.487 209.792C376.049 209.775 390.947 204.848 403.147 194.995Z" fill="black"/>
<path d="M713.465 154.205C713.029 169.622 709.342 184.134 702.388 197.725C695.433 211.332 685.58 222.359 672.827 230.805C660.074 239.268 645.244 243.491 628.335 243.491C591.502 243.491 563.449 234.609 544.177 216.829V298.741H492.781V62.6236H537.441L542.267 87.3581C561.974 68.0866 590.664 58.5514 628.352 58.7693C644.842 58.7693 659.454 62.8414 672.207 70.969C684.943 79.1133 694.964 90.2404 702.237 104.384C709.51 118.511 713.264 134.364 713.482 151.926V152.881V154.205H713.465ZM633.312 201.428C642.194 195.647 648.897 188.307 653.388 179.425C657.879 170.544 660.242 161.595 660.46 152.596C660.242 142.106 658.047 132.252 653.874 123.035C649.701 113.835 643.166 106.328 634.284 100.546C625.403 94.765 614.309 91.866 601.037 91.866C589.893 91.866 580.039 94.5975 571.476 100.06C562.913 105.524 556.21 112.746 551.4 121.745C546.574 130.744 544.177 140.162 544.177 150.016V150.334C544.177 161.478 546.524 171.583 551.249 180.699C555.958 189.799 562.661 196.971 571.325 202.216C580.006 207.461 589.91 210.092 601.037 210.092C613.672 210.092 624.431 207.21 633.312 201.428Z" fill="black"/>
<path d="M1011.89 131.867C1021.09 140.749 1025.7 153.451 1025.7 169.941V171.231C1025.7 189.866 1021.04 203.993 1011.73 213.629C1002.41 223.264 989.673 229.632 973.502 232.749C957.331 235.849 935.965 237.626 909.42 238.045H908.783H893.685L740.133 237.726V0H924.201C949.036 0.217852 968.86 5.36252 983.624 15.4172C998.404 25.4887 1005.79 39.7328 1005.79 58.1496V59.44C1005.79 73.3657 1002.9 84.7108 997.114 93.4919C991.332 102.273 982.652 108.808 971.089 113.082C989.087 116.718 1002.69 122.986 1011.89 131.867ZM946.69 47.3911C942.835 43.4362 937.808 40.9728 931.591 40.0009C925.374 39.0457 916.375 38.5597 904.611 38.5597H903.974H792.501V95.1006L875.704 96.0558H872.486H904.611C916.609 96.0558 925.541 95.6871 931.44 94.933C937.322 94.1789 942.299 91.7155 946.371 87.5428C950.443 83.3702 952.471 76.4659 952.471 66.8302C952.471 57.8312 950.544 51.3459 946.69 47.3911ZM946.204 195.312C953.158 194.24 958.671 191.408 962.744 186.799C966.816 182.191 968.844 174.65 968.844 164.16C968.844 154.088 966.799 146.815 962.744 142.307C958.671 137.816 953.158 135.085 946.204 134.113C939.249 133.158 928.809 132.672 914.883 132.672H914.565H792.501V196.284C842.607 196.284 878.586 196.502 900.438 196.921H914.9C928.809 196.921 939.249 196.385 946.204 195.312Z" fill="#5959D2"/>
<path d="M1274.67 154.205H1096.39C1097.02 164.478 1099.92 173.963 1105.07 182.626C1110.21 191.307 1117.6 198.312 1127.24 203.674C1136.87 209.037 1148.54 211.701 1162.24 211.701C1173.59 211.701 1183.98 209.673 1193.4 205.601C1202.81 201.529 1210.2 196.234 1215.57 189.698C1220.91 183.163 1223.59 176.258 1223.59 168.985H1274.67C1274.67 182.057 1270.23 194.307 1261.33 205.769C1252.45 217.231 1239.43 226.482 1222.3 233.553C1205.16 240.625 1184.93 244.161 1161.59 244.161C1140.39 244.161 1120.84 240.189 1102.97 232.28C1085.09 224.353 1070.85 213.159 1060.24 198.714C1049.63 184.252 1044.34 167.712 1044.34 149.077C1044.34 130.241 1049.48 113.584 1059.75 99.1221C1070.03 84.6601 1084.12 73.5329 1102 65.707C1119.88 57.8979 1139.74 53.9766 1161.59 53.9766C1184.08 53.9766 1203.77 57.8309 1220.7 65.5395C1237.6 73.2481 1250.78 84.1239 1260.21 98.1502C1269.63 112.176 1274.45 128.616 1274.67 147.468V149.077V154.205ZM1121.76 97.4966C1111.69 104.887 1104.51 114.791 1100.24 127.208H1221.03C1218.03 114.791 1211.81 104.887 1202.4 97.4966C1192.96 90.1064 1179.59 86.4197 1162.24 86.4197C1145.32 86.4197 1131.83 90.1064 1121.76 97.4966Z" fill="#5959D2"/>
<path d="M1345.98 90.5921L1339.88 62.6401H1295.23V237.709H1346.63V164.796C1346.63 152.16 1347.32 141.771 1348.73 133.626C1350.12 125.499 1353.53 118.594 1359 112.914C1364.46 107.233 1372.97 104.401 1384.54 104.401H1416.16L1422.12 60.0762C1387.42 63.4948 1362.05 73.6835 1345.98 90.5921Z" fill="#5959D2"/>
</svg>
